<svg xmlns="http://www.w3.org/2000/svg" xmlns:xlink="http://www.w3.org/1999/xlink" version="1.1" enable-background="new 0 0 1000 1000" xml:space="preserve" width="1040" height="984" style=""><rect id="backgroundrect" width="100%" height="100%" x="0" y="0" fill="none" stroke="none"/>

<g class="currentLayer" style=""><title>Layer 1</title><g id="svg_1" class="" stroke="#ffffff" stroke-opacity="1" stroke-width="40"><path stroke="#ffffff" fill="#fff" d="M685.0462735194583,277.0207119660163 c3.1020425511559555,-5.970480177106467 3.1020425511559555,-18.006210057940137 0,-27.009315086910206 c-6.107146272588286,-12.035729880833669 -21.520420198644437,-14.973585206076535 -42.94390156756525,-14.973585206076535 h-3.1020425511559555 H280.13278176388235 h-15.31633509633253 c-30.63267019266506,0 -46.04594411872121,14.973585206076535 -46.04594411872121,29.94717041215307 c0,9.003105028970069 6.107146272588286,18.006210057940137 15.31633509633253,23.976690235046604 c9.209188823744242,3.0326248518636025 18.418377647488484,9.003105028970069 30.63267019266506,9.003105028970069 h377.3828641140667 C663.6227921505374,298.05954687582 678.9391272468698,289.0564418468499 685.0462735194583,277.0207119660163 L685.0462735194583,277.0207119660163 L685.0462735194583,277.0207119660163 zM218.7705025488287,391.0284524907635 c0,9.003105028970069 6.107146272588286,21.03883490980374 15.31633509633253,23.976690235046604 c9.209188823744242,3.0326248518636025 18.418377647488484,5.970480177106467 30.63267019266506,5.970480177106467 h291.4950609789361 l6.107146272588286,-5.970480177106467 c9.209188823744242,-9.003105028970069 18.418377647488484,-18.006210057940137 27.627566471232726,-27.009315086910206 l36.83675529497697,-29.94717041215307 H264.71950783782626 C234.0868376451612,360.98651255198973 218.7705025488287,376.054867284687 218.7705025488287,391.0284524907635 L218.7705025488287,391.0284524907635 L218.7705025488287,391.0284524907635 zM847.6126909659749,364.0191374038533 c9.209188823744242,3.0326248518636025 18.418377647488484,9.003105028970069 27.627566471232726,14.973585206076535 l27.627566471232726,14.973585206076535 V115.05959097117574 c0,-50.9860053219568 -46.04594411872121,-65.95959052803333 -76.67861431138626,-65.95959052803333 l0,0 H138.98984568628646 l0,0 c-30.63267019266506,0 -88.98984568628646,18.006210057940137 -88.98984568628646,65.95959052803333 v737.780764742442 c0,47.95338047009321 58.260236663897786,65.95959052803333 88.98984568628646,65.95959052803333 l0,0 h687.1993639107676 c55.25513294246545,0 76.67861431138626,-38.95027544112314 76.67861431138626,-65.95959052803333 v-65.95959052803333 l-39.8418590164093,-32.979795264016666 l-27.627566471232726,12.035729880833669 v86.99842543783708 c0,0 0,3.0326248518636025 -3.1020425511559555,5.970480177106467 c-3.1020425511559555,3.0326248518636025 -3.1020425511559555,0 -9.209188823744242,0 H138.98984568628646 c-3.1020425511559555,0 -21.520420198644437,5.970480177106467 -21.520420198644437,-5.970480177106467 V115.05959097117574 c0,-3.0326248518636025 9.209188823744242,-3.0326248518636025 21.520420198644437,-3.0326248518636025 h687.1993639107676 c3.1020425511559555,0 12.311231374900196,-5.970480177106467 12.311231374900196,3.0326248518636025 v245.926921580814 L847.6126909659749,364.0191374038533 L847.6126909659749,364.0191374038533 L847.6126909659749,364.0191374038533 zM997.9648158673153,744.8978648925976 L881.4443425395197,636.9553740715776 c18.418377647488484,-27.009315086910206 27.627566471232726,-56.95648549906328 27.627566471232726,-89.93628076307996 c0,-96.00153046680715 -82.78576058397456,-170.96422602381057 -187.18888019631717,-170.96422602381057 S534.694148618118,454.050187693554 534.694148618118,547.0190933084975 c0,96.00153046680715 82.78576058397456,170.96422602381057 187.18888019631717,170.96422602381057 c46.04594411872121,0 85.8878031351305,-14.973585206076535 116.61741215751918,-38.95027544112314 l113.51536960636322,105.00463549577722 c6.107146272588286,5.970480177106467 15.31633509633253,5.970480177106467 21.520420198644437,0 l21.520420198644437,-21.03883490980374 C1001.0668584184709,759.9662196252949 1001.0668584184709,750.9631145963249 997.9648158673153,744.8978648925976 L997.9648158673153,744.8978648925976 L997.9648158673153,744.8978648925976 L997.9648158673153,744.8978648925976 zM586.8472390094274,549.9569486337404 c0,-68.99221537989695 61.36227921505373,-125.94870087896022 135.03578980500768,-125.94870087896022 s135.03578980500768,56.95648549906328 135.03578980500768,125.94870087896022 c0,68.99221537989695 -61.36227921505373,125.94870087896022 -135.03578980500768,125.94870087896022 C645.2044145030488,672.9677941874578 586.8472390094274,618.9491640136374 586.8472390094274,549.9569486337404 L586.8472390094274,549.9569486337404 L586.8472390094274,549.9569486337404 L586.8472390094274,549.9569486337404 z" id="svg_2" stroke-opacity="1" stroke-width="40"/></g></g></svg>