<svg xmlns="http://www.w3.org/2000/svg" xmlns:xlink="http://www.w3.org/1999/xlink" width="365" height="560" enable-background="new 0 0 365 560" version="1.1" xml:space="preserve"><rect id="backgroundrect" width="100%" height="100%" x="0" y="0" fill="none" stroke="none"/><g class="currentLayer"><title>Layer 1</title><g id="svg_1" fill="#484848" fill-opacity="1"><path id="svg_2" fill="#fff" fill-opacity="1" d="M182.9,551.7c0,0.1,0.2,0.3,0.2,0.3S358.3,283,358.3,194.6c0-130.1-88.8-186.7-175.4-186.9 C96.3,7.9,7.5,64.5,7.5,194.6c0,88.4,175.3,357.4,175.3,357.4S182.9,551.7,182.9,551.7z M122.2,187.2c0-33.6,27.2-60.8,60.8-60.8 c33.6,0,60.8,27.2,60.8,60.8S216.5,248,182.9,248C149.4,248,122.2,220.8,122.2,187.2z"/></g></g></svg>